<svg fill="#7ff000" clip-rule="evenodd" fill-rule="evenodd" stroke-linejoin="round" stroke-miterlimit="2" viewBox="0 0 24 24" xmlns="http://www.w3.org/2000/svg"><path d="m14.123 19.336c-.468.453-.944.913-1.426 1.381-.194.189-.446.283-.697.283s-.503-.094-.697-.283c-4.958-4.813-9.303-8.815-9.303-12.54 0-5.659 7.376-6.978 10-2.461 2.604-4.483 10-3.217 10 2.461 0 .68-.144 1.369-.41 2.07-1.061-1.02-2.503-1.648-4.089-1.648-3.257 0-5.9 2.644-5.9 5.9 0 2 .997 3.77 2.522 4.837zm3.377-9.336c2.484 0 4.5 2.016 4.5 4.5s-2.016 4.5-4.5 4.5-4.5-2.016-4.5-4.5 2.016-4.5 4.5-4.5zm.707 4.5s.642-.642 1.061-1.061c.187-.187.187-.519 0-.707-.188-.187-.52-.187-.707 0-.419.419-1.061 1.061-1.061 1.061s-.642-.642-1.061-1.061c-.187-.187-.519-.187-.707 0-.187.188-.187.52 0 .707.419.419 1.061 1.061 1.061 1.061s-.642.642-1.061 1.061c-.187.187-.187.519 0 .707.188.187.52.187.707 0 .419-.419 1.061-1.061 1.061-1.061s.642.642 1.061 1.061c.187.187.519.187.707 0 .187-.188.187-.52 0-.707-.419-.419-1.061-1.061-1.061-1.061z" fill-rule="nonzero"/></svg>